<?xml version="1.0" encoding="UTF-8" standalone="no" ?>
<!DOCTYPE svg PUBLIC "-//W3C//DTD SVG 1.1//EN" "http://www.w3.org/Graphics/SVG/1.1/DTD/svg11.dtd">
<svg xmlns="http://www.w3.org/2000/svg" xmlns:xlink="http://www.w3.org/1999/xlink" version="1.1" width="1080" height="1080" viewBox="0 0 1080 1080" xml:space="preserve">
<desc>Created with Fabric.js 5.2.4</desc>
<defs>
</defs>
<g transform="matrix(1 0 0 1 540 540)" id="060ea3b7-5256-46a4-a6de-f1d4d488ea5c"  >
<rect style="stroke: none; stroke-width: 1; stroke-dasharray: none; stroke-linecap: butt; stroke-dashoffset: 0; stroke-linejoin: miter; stroke-miterlimit: 4; fill: rgb(255,255,255); fill-rule: nonzero; opacity: 1; visibility: hidden;" vector-effect="non-scaling-stroke"  x="-540" y="-540" rx="0" ry="0" width="1080" height="1080" />
</g>
<g transform="matrix(1 0 0 1 540 540)" id="1b69b1e7-3e31-411e-9862-7610f537ed56"  >
</g>
<g transform="matrix(1.85 0 0 1.85 203.97 540)" id="20d55e3f-218d-4bd9-b337-64290e1cb05b"  >
<path style="stroke: rgb(0,0,0); stroke-width: 0; stroke-dasharray: none; stroke-linecap: butt; stroke-dashoffset: 0; stroke-linejoin: miter; stroke-miterlimit: 4; fill: rgb(0,0,0); fill-rule: nonzero; opacity: 1;" vector-effect="non-scaling-stroke"  transform=" translate(-61.46, -61.44)" d="M 60.54 34.07 C 57.552139503415404 37.057860496584595 52.707860496584594 37.057860496584595 49.72 34.07 C 46.73213950341541 31.08213950341541 46.73213950341541 26.237860496584595 49.72 23.25 L 62.72 10.3 C 76.52234462088536 -3.433706142429026 98.82765537911462 -3.4337061424290205 112.63 10.3 L 112.69999999999999 10.38 C 126.36681754231863 24.18996340978555 126.3355633426889 46.438488660492396 112.63 60.209999999999994 L 99.63 73.16 C 96.64213950341541 76.14786049658458 91.79786049658459 76.14786049658458 88.81 73.16 C 85.82213950341541 70.17213950341541 85.82213950341541 65.32786049658459 88.81 62.34 L 101.81 49.34 C 109.54077631549096 41.517802934116794 109.54077631549096 28.932197065883205 101.81 21.11 L 101.7 21.000000000000004 C 93.86225561947198 13.30834371213329 81.29946250167608 13.339527950368959 73.5 21.070000000000007 L 60.55 34.07000000000001 Z M 74.53999999999999 37.230000000000004 C 77.57694615724965 34.58315224918846 82.1461808763328 34.74506654267739 84.98815880019474 37.600238421617604 C 87.83013672405669 40.455410300557816 87.97088573182963 45.025345953641114 85.31 48.05 L 48.05 85.31 C 45.043147567292536 88.1655297808437 40.308674320481316 88.10553029802813 37.3751515842532 85.17471876580761 C 34.44162884802509 82.2439072335871 34.37725170039596 77.50949148868548 37.23 74.5 L 74.5 37.23 Z M 62.1 89.05 C 65.10949148868548 86.19725170039597 69.8439072335871 86.2616288480251 72.77471876580762 89.19515158425321 C 75.70553029802812 92.12867432048132 75.7655297808437 96.86314756729254 72.91 99.87 L 60.209999999999994 112.58000000000001 C 46.46591332617187 126.25877607644159 24.270839080061734 126.32122202488321 10.449999999999989 112.72000000000001 L 10.169999999999996 112.45000000000002 C -3.441754084250487 98.62729308519033 -3.3837636692153996 76.42142492790835 10.299999999999985 62.67000000000003 L 23 50 C 24.889685902956824 47.900052357727276 27.782869690400883 47.012457613143525 30.525084127442007 47.691392730370296 C 33.267298564483134 48.37032784759706 35.41214316479021 50.50527011826282 36.10376050729937 53.24431344827078 C 36.79537784980853 55.98335677827873 35.921180707977335 58.88061690049007 33.83 60.78 L 21.12 73.49 C 13.381458350422726 81.31679869687262 13.381458350422722 93.91320130312737 21.119999999999997 101.74 L 21.12 101.74 C 28.944691403852456 109.50261187542993 41.565308596147545 109.50261187542993 49.39 101.74 L 62.1 89.05 Z" stroke-linecap="round" />
</g>
<g transform="matrix(1 0 0 1 611.75 599.68)" style="" id="43dc63a2-14b2-4d74-8b6d-2fc410bda546"  >
		<text xml:space="preserve" font-family="Raleway" font-size="105" font-style="normal" font-weight="900" style="stroke: none; stroke-width: 1; stroke-dasharray: none; stroke-linecap: butt; stroke-dashoffset: 0; stroke-linejoin: miter; stroke-miterlimit: 4; fill: rgb(0,37,158); fill-rule: nonzero; opacity: 1; white-space: pre;" ><tspan x="-348.92" y="32.98" >url-shortener</tspan></text>
</g>
</svg>